<mxfile host="app.diagrams.net" modified="2023-09-20T22:02:47.752Z" agent="Mozilla/5.0 (X11; Linux x86_64; rv:102.0) Gecko/20100101 Firefox/102.0" etag="92J86KN8obHVTffYpdin" version="21.8.0" type="github">
  <diagram name="Page-1" id="UkipozlrH0DB8UZKIENJ">
    <mxGraphModel dx="1434" dy="679" grid="1" gridSize="10" guides="1" tooltips="1" connect="1" arrows="1" fold="1" page="1" pageScale="1" pageWidth="850" pageHeight="1100" math="0" shadow="0">
      <root>
        <mxCell id="0" />
        <mxCell id="1" parent="0" />
        <mxCell id="jjJ4SJrCk0ICVeAuswsj-1" value="" style="rounded=1;whiteSpace=wrap;html=1;" parent="1" vertex="1">
          <mxGeometry x="380" y="380" width="120" height="60" as="geometry" />
        </mxCell>
      </root>
    </mxGraphModel>
  </diagram>
</mxfile>
